<?xml version="1.0" encoding="UTF-8"?>
<svg id="_x31_" xmlns="http://www.w3.org/2000/svg" width="1200" height="616" version="1.1" viewBox="0 0 1200 616">
  <!-- Generator: Adobe Illustrator 30.1.0, SVG Export Plug-In . SVG Version: 2.1.1 Build 136)  -->
  <g>
    <g>
      <path d="M75.956,598.872L15,413.215h23.409l49.173,153.632,46.346-153.632h23.095l-58.757,185.657h-22.309Z" fill="#848b91"/>
      <path d="M229.447,601c-17.807,0-30.636-3.92-38.491-11.758-7.855-7.838-11.783-21.237-11.783-40.199v-33.481c0-12.914,1.858-23.16,5.577-30.737,3.717-7.577,9.164-12.895,16.339-15.956,7.173-3.061,16.677-4.592,28.514-4.592,7.855,0,14.557.728,20.109,2.184,5.55,1.455,10.158,3.527,13.825,6.214,3.665,2.687,6.572,6.327,8.72,10.918,2.145,4.592,3.638,9.669,4.477,15.229.837,5.562,1.257,12.262,1.257,20.1l-.157,11.981h-75.095v19.82c0,13.737,1.858,23.441,5.577,29.114,3.717,5.674,10.708,8.51,20.973,8.51,8.169,0,14.454-1.847,18.852-5.543,4.399-3.695,6.599-10.394,6.599-20.1v-9.181h23.094v7.389c0,12.841-3.77,22.732-11.311,29.674s-19.9,10.414-37.077,10.414ZM202.74,521.273h52.001v-10.975c0-4.627-.157-8.471-.472-11.533-.314-3.06-.969-6.102-1.964-9.126-.997-3.023-2.384-5.392-4.163-7.111-1.782-1.716-4.242-3.097-7.384-4.143-3.142-1.044-6.913-1.568-11.311-1.568-9.952,0-16.889,2.463-20.816,7.39s-5.891,14.296-5.891,28.107v8.958Z" fill="#848b91"/>
      <path d="M311.613,598.872v-132.58h23.565v18.253c5.656-6.719,12.279-11.682,19.874-14.893,7.592-3.209,15.263-4.814,23.016-4.814,1.885,0,3.245.038,4.085.111v18.14c-3.353-.969-7.124-1.456-11.311-1.456-15.082,0-26.971,5.152-35.663,15.454v101.786h-23.565Z" fill="#848b91"/>
      <path d="M432.897,600.888c-9.323,0-16.444-2.463-21.366-7.39-4.924-4.927-7.384-11.906-7.384-20.94v-106.265h23.723v102.794c0,6.719,1.414,11.497,4.242,14.333,2.828,2.838,7.278,4.255,13.354,4.255,10.577,0,21.575-4.329,32.992-12.989v-108.393h23.566v132.58h-23.566v-14.669c-13.825,11.125-29.013,16.685-45.56,16.685Z" fill="#848b91"/>
      <path d="M538,598.872v-132.58h22.152v13.437c12.463-10.526,27.073-15.788,43.832-15.788,15.499,0,25.24,5.823,29.221,17.468,12.985-11.646,28.278-17.468,45.874-17.468,9.215,0,16.783,2.37,22.702,7.11,5.915,4.742,8.876,12.486,8.876,23.235v104.586h-22.309v-104.138c0-7.24-1.572-12.279-4.713-15.116-3.142-2.837-7.647-4.256-13.511-4.256-11.837.151-23.514,4.742-35.034,13.774.208,2.24.314,3.957.314,5.151v104.586h-21.995v-104.138c0-7.24-1.624-12.279-4.87-15.116-3.247-2.837-7.803-4.256-13.668-4.256-11.836.151-23.408,4.742-34.72,13.774v109.737h-22.152Z" fill="#848b91"/>
    </g>
    <g>
      <path d="M775.52,598.872l-50.657-185.657h40.405l32.866,129.221,31.058-129.221h41.31l-50.959,185.657h-44.024Z" fill="#60656e"/>
      <path d="M894.927,445.352v-26.426h42.365v26.426h-42.365ZM894.927,598.872v-132.58h42.214v132.58h-42.214Z" fill="#60656e"/>
      <path d="M1020.063,600.664c-8.142-.076-15.053-1.083-20.731-3.024-5.679-1.94-10.052-4.72-13.116-8.342-3.067-3.62-5.276-7.67-6.633-12.149s-2.035-9.704-2.035-15.677v-74.465h-17.64v-20.715h17.64v-38.968h42.365v38.968h27.138v20.715h-27.138v76.48c0,4.331,1.281,7.446,3.845,9.35,2.563,1.903,6.656,2.893,12.287,2.967,3.92.076,8.191-.148,12.815-.672v23.963c-11.963,1.193-21.559,1.716-28.796,1.568Z" fill="#60656e"/>
      <path d="M1107.205,601c-11.259-.076-20.481-3.34-27.666-9.798-7.188-6.457-10.78-13.754-10.78-21.892,0-7.688,1.708-14.407,5.126-20.156,3.416-5.747,9.02-10.674,16.811-14.781,7.787-4.105,14.247-7.091,19.373-8.958,5.126-1.865,13.016-4.329,23.67-7.39,3.016-.896,5.277-1.568,6.785-2.016v-11.086c0-5.971-.93-10.338-2.789-13.101-1.861-2.761-5.654-4.143-11.383-4.143-9.347,0-14.123,4.853-14.323,14.556l-.602,8.287-40.405-1.121c0-.448.023-1.268.075-2.462.05-1.193.076-1.978.076-2.352,1.305-13.885,6.86-24.074,16.66-30.57,9.8-6.494,23.796-9.741,41.989-9.741,17.587,0,30.629,3.546,39.123,10.637,8.492,7.094,12.74,17.133,12.74,30.122v60.58c0,10.153,1.105,21.239,3.317,33.257h-38.144c-2.314-8.659-3.769-15.153-4.373-19.484-2.513,6.122-6.709,11.253-12.589,15.397-5.88,4.143-13.443,6.215-22.69,6.215ZM1123.336,576.701c3.216,0,6.408-.896,9.574-2.687,3.166-1.792,5.703-3.62,7.614-5.487v-36.503c-20.908,8.585-31.359,18.327-31.359,29.225,0,4.779,1.23,8.549,3.694,11.309,2.462,2.763,5.955,4.144,10.478,4.144Z" fill="#60656e"/>
    </g>
  </g>
  <path d="M600,15c-92.154,0-166.86,74.566-166.86,166.547s74.706,166.547,166.86,166.547,166.86-74.566,166.86-166.547S692.154,15,600,15ZM596.323,311.841c-7.775,0-14.079-6.292-14.079-14.052s6.303-14.052,14.079-14.052,14.079,6.292,14.079,14.052-6.303,14.052-14.079,14.052ZM670.354,101.007l-48.933,167.179c-.733,2.504-3.033,4.225-5.647,4.225h-39.152c-2.614,0-4.914-1.721-5.647-4.225l-41.117-140.476c-5.024-17.165,7.873-34.337,25.789-34.337,1.314,0,2.466.878,2.812,2.143l37.74,138.121,37.476-137.152c.502-1.837,2.174-3.112,4.081-3.112h26.865c3.984,0,6.851,3.818,5.734,7.634Z" fill="#43ae61"/>
</svg>